<?xml version="1.0" standalone="no"?><!DOCTYPE svg PUBLIC "-//W3C//DTD SVG 1.1//EN" "http://www.w3.org/Graphics/SVG/1.1/DTD/svg11.dtd"><svg class="icon" width="32px" height="32.00px" viewBox="0 0 1024 1024" version="1.1" xmlns="http://www.w3.org/2000/svg"><path d="M896.211 512c0 212.116-172.095 384.211-384.211 384.211S127.789 724.116 127.789 512 299.884 127.789 512 127.789 896.211 299.884 896.211 512zM637.569 397.938c2.501-0.5 5.002-9.505 6.503-11.506 3.002-3.502 7.004-5.503 11.006-7.504 8.505-3.502 17.01-4.502 26.015-6.003 8.505-2.001 19.011-2.001 25.514 5.503-1.5-1.501 10.506-12.007 12.007-12.507 4.503-2.501 12.007-1.501 15.009-6.003 1-1.501 1-11.006 1-11.006-8.505 1-11.506-7.004-12.007-14.008 0 0.5-1 2.001-3.001 4.002 0.5-7.504-9.005-2.001-12.507-3.001-11.507-3.001-10.006-11.006-13.508-19.511-2.001-4.502-7.504-6.003-9.505-10.506-2.001-3.001-3.002-9.505-7.505-10.005-3.001-0.5-8.504 10.506-9.505 10.005-4.502-2.501-6.503 1-10.005 3.002-3.002 2.001-5.504 1-8.505 2.501 9.005-3.001-4.003-8.004-8.505-7.004 7.004-2.001 3.502-9.505-0.5-13.007 1 0 1.501 0 2.501 0-1-4.502-15.008-8.505-19.511-11.506-4.502-3.001-28.516-8.004-33.519-5.003-6.003 3.502 1.501 13.507 1.501 18.51 0.5 6.003-6.003 7.504-6.003 12.507 0 8.505 16.009 7.004 12.007 18.51-2.502 7.004-12.007 8.505-16.009 14.008-4.003 5.002 0.5 14.008 4.502 17.509 4.002 3.002-7.004 8.005-8.505 9.005-8.504 4.002-15.008-8.505-17.01-16.009-1.5-5.503-2-12.007-8.004-15.008-3.002-1-12.507-2.501-14.508 0.5-3.002-7.504-13.508-10.506-20.512-13.007-10.005-3.502-18.51-3.502-29.016-2.001 3.502-0.5-1-16.009-9.505-13.508 2.501-5.002 1.501-10.506 2.501-15.508 1.001-4.002 3.002-8.004 6.004-11.506 1-2.001 12.006-13.507 8.504-14.008 8.505 1 18.01 1.501 25.014-5.503 4.503-4.502 6.504-12.007 11.006-17.009 6.504-7.504 14.509 2.001 21.513 2.501 10.005 0.5 9.505-10.506 4.002-15.509 6.503 0.5 1.001-11.506-2.501-13.007-4.503-1.501-21.512 3.001-12.508 6.503-2-1-14.008 24.013-21.011 11.506-2.001-2.501-3.002-13.007-7.505-13.507-4.002 0-6.503 4.502-8.004 7.504 2.502-6.503-14.008-11.006-17.51-11.506 7.504-5.003 1.501-10.506-4.002-13.507-4.002-2.501-16.51-4.502-20.012-0.5-9.504 11.506 10.006 13.007 15.009 16.009 1.501 1.001 7.505 4.503 4.003 7.004-3.002 1.501-12.008 4.002-13.008 6.003-3.002 4.502 3.502 9.505-1 14.008-4.503-4.502-4.503-12.007-8.005-17.009 4.503 5.503-18.01 2.501-17.51 2.501-7.504 0-19.511 5.002-25.014-2.501-1-2.001-1-13.508 2.001-11.006-4.502-3.502-7.504-7.004-10.505-9.005-16.509 5.503-32.018 12.507-47.026 20.511 2.001 0.5 3.502 0.5 6.003-0.5 4.002-1.501 7.504-4.002 11.506-6.003 5.002-2.001 15.508-8.004 21.011-3.502 0.5-1 2.001-2.001 2.501-2.501 3.502 4.002 7.004 8.004 10.005 12.507-4.002-2.001-10.506-1-15.008-0.5-3.502 1-9.505 2.001-11.006 6.003 1.501 2.501 3.502 6.504 2.501 9.005-6.504-4.502-11.506-12.006-20.511-13.007-4.002 0-8.004 0-11.006 0.5-48.026 26.515-88.548 65.036-117.564 111.061 2.001 2.001 4.002 3.502 6.003 4.002 5.003 1.501 0 16.009 9.505 8.504 3.001 2.501 3.501 6.003 1.5 9.505 0.5-0.5 20.511 12.507 22.012 13.507 3.502 3.002 9.005 6.504 10.506 10.506 1 3.502-2.001 7.504-5.003 9.005-0.5-1-8.004-8.504-9.005-6.503-1.501 2.501 0 16.009 5.503 15.508-8.004 0.5-4.502 31.518-6.503 37.521 0 0.5 1 0.5 1 0.5-1.501 6.003 3.502 29.516 13.507 27.015-6.503 1.501 11.506 24.514 14.008 26.015 6.503 4.502 14.008 7.504 18.51 14.008 5.002 7.004 5.002 17.51 12.006 23.013-2.001 6.003 10.506 13.007 10.006 21.512-1.001 0.5-1.501 0.5-2.501 1 2.501 7.004 12.006 7.004 15.508 13.508 2.001 4.002 0 13.507 6.504 11.506 1-11.006-6.504-22.012-12.007-31.017-3.001-5.003-6.003-9.505-8.505-14.508-2.501-4.503-3.001-10.006-5.002-15.009 2.001 0.501 13.007 4.503 12.006 6.004-4.002 10.005 16.009 27.515 21.512 34.019 1.501 1.501 13.007 16.509 7.004 16.509 6.504 0 15.509 10.006 18.51 15.009 4.502 7.504 3.502 17.009 6.503 25.014 3.002 10.005 17.01 14.508 25.014 19.01 7.003 3.502 13.007 8.505 20.01 11.006 10.506 4.003 13.008 0.501 22.013-1 13.007-2.001 14.508 12.507 25.014 18.01 6.503 3.502 20.511 8.505 27.515 5.503-3.001 1.001 10.506 21.512 11.507 23.013 4.503 6.003 13.007 9.005 18.01 15.009 1.501-1.001 3.002-2.502 3.502-4.503-2.001 5.503 7.504 16.009 12.507 15.008 5.503-1 7.004-12.006 7.004-16.009-10.006 5.003-19.01 1.001-24.514-9.005-1-2.501-9.005-16.509-2.001-16.509 9.505 0 3.002-7.504 2.001-14.508-1-7.004-8.004-11.507-11.506-17.51-3.002 6.003-13.008 4.503-16.009-0.5 0 1.501-1.501 4.002-1.501 6.003-2.502 0-5.003 0.5-7.504-0.5 1-6.003 1.5-13.508 3.002-20.011 2.501-9.005 19.01-26.515-2.502-25.515-7.504 0.501-10.506 3.502-13.008 10.006-2.501 6.003-1.5 11.506-8.504 14.508-4.502 2.001-19.511 1.001-24.014-1.501-9.505-5.503-16.008-23.013-16.008-33.018-0.501-13.508 6.503-25.515 0-38.021 3.001-2.501 6.003-7.504 9.504-10.005 3.002-2.001 6.504 1.501 8.005-4.503-1.501-1-3.502-3.002-4.002-3.002 7.504 3.502 21.512-5.002 28.015 0 4.003 3.002 8.506 4.003 11.007-1 0.5-1.501-3.502-7.504-1.501-11.507 1.501 8.505 7.004 10.006 14.508 4.503 3.002 3.002 11.006 2.001 16.51 5.003 5.502 3.502 6.503 9.005 13.007 1.501 4.002 6.003 4.503 6.003 6.003 12.006 1.501 5.503 4.502 19.511 9.506 22.013 10.506 6.503 8.004-11.006 7.004-17.01-0.501-0.5-0.501-17.009-1.001-17.009-16.009-3.502-10.005-16.009-1.001-24.514 1.501-1.001 13.008-5.003 18.01-9.005 4.503-4.002 10.006-11.006 7.505-17.51 2.501 0 4.502-2.001 5.503-4.502-1.501-0.5-7.504-5.503-8.505-5.003 3.502-2.001 3.002-5.002 1.001-8.004 5.002-3.001 2.501-8.504 7.504-10.506 5.503 7.504 16.509-1 11.006-7.004 5.003-7.003 16.509-3.501 19.511-10.005 7.504 2.001 2.001-7.504 6.003-13.007 3.502-4.502 9.506-4.502 14.008-7.004 0 0.5 12.507-7.004 8.505-7.504 8.505 1 25.514-8.004 12.507-15.508 2.001-4.502-4.502-6.503-9.005-7.504 3.502-1 8.004 1.001 11.006-1 6.504-4.502 2.001-6.503-3.502-8.004-7.004-2.001-16.009 2.501-21.512 6.003C645.073 391.434 642.571 396.937 637.569 397.938zM743.127 732.621c-3.002-3.002-8.505-2.001-12.507-4.002-4.002-1.501-7.004-3.002-12.007-4.002 1.001-10.006-10.006-13.508-17.009-18.511-6.504-5.003-10.506-10.506-20.012-8.505-1 0.501-11.006 4.003-9.005 6.004-6.503-5.503-9.505-8.505-18.01-11.006-8.004-2.502-13.507-12.508-21.512-3.502-4.002 4.002-2.001 10.005-4.002 14.007-6.504-5.503 6.003-12.006 1-18.01-6.003-7.004-16.509 4.503-21.512 7.505-3.001 2.501-6.503 3.502-8.504 6.503-2.502 3.502-3.502 8.005-5.504 11.507-1.5-4.003-10.005-3.002-10.506-6.004 2.002 12.007 2.002 24.514 4.503 36.521 1.501 7.004 0 18.51-6.003 24.013-6.004 5.503-13.508 11.507-14.508 20.012-1.001 6.003 0.5 11.506 6.003 13.007 0.5 7.504-8.005 13.007-7.505 21.012 0 0.5 0.501 5.503 1.001 8.004C636.068 815.166 697.102 781.147 743.127 732.621z" fill="#1296db" /></svg>